# xmcd CD database file
#
# Track frame offsets:
#	150
#	18962
#	33625
#	43982
#	65332
#	85892
#	111352
#	113477
#	132070
#	146312
#
# Disc length: 2266 seconds
#
# Revision: 0
# Processed by: cddbd v1.5.1PL0 Copyright (c) Steve Scherf et al.
# Submitted via: CDex 1.51
#
DISCID=8108d80a
DTITLE=子供ばんど - Hungry Boy
DYEAR=1985
DGENRE=Hard Rock
TTITLE0=Rockin' Rider
TTITLE1=Let's Go Animal (To The Zoo)
TTITLE2=Go Go Club
TTITLE3=Come Back Baby
TTITLE4=Diamond Dust〜コニーアイランドにて
TTITLE5=Fallin' Rain
TTITLE6=No Problem
TTITLE7=I'm So Happy
TTITLE8=I'm A Hungry Boy
TTITLE9=Let's Go Animal
EXTD=YEAR: 1985
EXTT0=
EXTT1=
EXTT2=
EXTT3=
EXTT4=
EXTT5=
EXTT6=
EXTT7=
EXTT8=
EXTT9=
PLAYORDER=
